<svg xmlns="http://www.w3.org/2000/svg" width="151.69" height="40" viewBox="0 0 151.69 40"><defs><style>.a{fill:#1c1d21;}.b{fill:#2ecc71;}</style></defs><path class="a" d="M1774.393,480.214h-5.434V470.056a2.051,2.051,0,0,0-2.051-2.056h-3.5a2.056,2.056,0,0,0-2.057,2.056v10.157h-3.4a2.056,2.056,0,0,0-2.051,2.056v3.282a2.056,2.056,0,0,0,2.051,2.051h3.387v15.3a2.062,2.062,0,0,0,2.057,2.051h3.5a2.056,2.056,0,0,0,2.051-2.051V487.6h5.439a2.056,2.056,0,0,0,2.057-2.051V482.27A2.056,2.056,0,0,0,1774.393,480.214Z" transform="translate(-1624.755 -464.953)"/><path class="a" d="M1727.223,480.214h-5.444V470.056a2.051,2.051,0,0,0-2.052-2.056h-3.5a2.056,2.056,0,0,0-2.056,2.056v10.157h-3.383a2.056,2.056,0,0,0-2.056,2.056v3.282a2.056,2.056,0,0,0,2.056,2.051h3.383v15.3a2.062,2.062,0,0,0,2.057,2.051h3.5a2.056,2.056,0,0,0,2.052-2.051V487.6h5.444a2.057,2.057,0,0,0,2.052-2.051V482.27A2.057,2.057,0,0,0,1727.223,480.214Z" transform="translate(-1601.187 -464.953)"/><path class="a" d="M1688.244,490.57h-3.5a2.051,2.051,0,0,0-2.051,2.051v21.556a2.062,2.062,0,0,0,2.051,2.051h3.5a2.061,2.061,0,0,0,2.051-2.051V492.621A2.051,2.051,0,0,0,1688.244,490.57Z" transform="translate(-1588.177 -476.23)"/><path class="b" d="M1688.244,462.87h-3.5a2.056,2.056,0,0,0-2.051,2.056v5.129a2.062,2.062,0,0,0,2.051,2.056h3.5a2.061,2.061,0,0,0,2.051-2.056v-5.119a2.056,2.056,0,0,0-2.051-2.066Z" transform="translate(-1588.177 -462.39)"/><path class="a" d="M1643.846,468h-3.5a2.052,2.052,0,0,0-2.052,2.056v11.508a10.272,10.272,0,0,0-16.732,7.976v5.134a10.267,10.267,0,0,0,16.732,7.986v.24a2.057,2.057,0,0,0,2.052,2.051h3.5a2.062,2.062,0,0,0,2.052-2.051V470.056A2.057,2.057,0,0,0,1643.846,468Zm-8.246,31.173h-1.621a4.839,4.839,0,0,1-4.833-4.834V489.9a4.833,4.833,0,0,1,4.833-4.833h1.621a4.793,4.793,0,0,1,2.7.831v12.449a4.794,4.794,0,0,1-2.7.831Z" transform="translate(-1557.634 -464.953)"/><path class="a" d="M1589.422,491.43a2.051,2.051,0,0,0-1.686-.861h-4.218a2,2,0,0,0-1.671,3.182l6,8.456a2.061,2.061,0,0,1,0,2.372l-6,8.456a2,2,0,0,0,1.671,3.192h4.213a2.067,2.067,0,0,0,1.676-.871l7.625-10.778a2.061,2.061,0,0,0,0-2.372Z" transform="translate(-1537.595 -476.229)"/><path class="b" d="M1583.377,472.142a1.666,1.666,0,0,0,1.326-.68l4.969-7.005a1.621,1.621,0,0,0-1.346-2.547h-3.377a1.666,1.666,0,0,0-1.346.685l-4.9,6.95a1.646,1.646,0,0,0,1.331,2.6Z" transform="translate(-1536.067 -461.91)"/><path class="a" d="M1556.973,493.751a2,2,0,0,0-1.686-3.182h-4.228a2.042,2.042,0,0,0-1.671.861l-7.625,10.778a2.047,2.047,0,0,0,0,2.372l7.625,10.778a2.086,2.086,0,0,0,1.681.871h4.218a2.031,2.031,0,0,0,1.686-3.192l-6-8.456a2.047,2.047,0,0,1,0-2.372Z" transform="translate(-1517.575 -476.228)"/><path class="a" d="M1517.237,482.475a2,2,0,0,0-1.681-3.182h-4.233a2.042,2.042,0,0,0-1.671.861l-8.246,11.678V470.056a2.047,2.047,0,0,0-2.052-2.056h-3.5a2.052,2.052,0,0,0-2.052,2.056V502.9a2.057,2.057,0,0,0,2.052,2.051h3.5a2.056,2.056,0,0,0,2.052-2.051V492.393l8.261,11.673a2.087,2.087,0,0,0,1.681.871h4.223a2.032,2.032,0,0,0,1.681-3.192l-6-8.456a2.062,2.062,0,0,1,0-2.372Z" transform="translate(-1493.8 -464.953)"/></svg>